<svg xmlns="http://www.w3.org/2000/svg" viewBox="-700 -700 1400 1400" width="100%" height="100%" preserveAspectRatio="xMidYMid meet">
  <g stroke="#0d2840" stroke-width="24" stroke-linecap="round" fill="none">
    <line x1="540.00" y1="-0.00" x2="381.84" y2="-381.84"/>
    <line x1="540.00" y1="-0.00" x2="0.00" y2="-540.00"/>
    <line x1="540.00" y1="-0.00" x2="-381.84" y2="-381.84"/>
    <line x1="540.00" y1="-0.00" x2="-540.00" y2="-0.00"/>
    <line x1="540.00" y1="-0.00" x2="-381.84" y2="381.84"/>
    <line x1="540.00" y1="-0.00" x2="-0.00" y2="540.00"/>
    <line x1="540.00" y1="-0.00" x2="381.84" y2="381.84"/>
    <line x1="381.84" y1="-381.84" x2="0.00" y2="-540.00"/>
    <line x1="381.84" y1="-381.84" x2="-381.84" y2="-381.84"/>
    <line x1="381.84" y1="-381.84" x2="-540.00" y2="-0.00"/>
    <line x1="381.84" y1="-381.84" x2="-381.84" y2="381.84"/>
    <line x1="381.84" y1="-381.84" x2="-0.00" y2="540.00"/>
    <line x1="381.84" y1="-381.84" x2="381.84" y2="381.84"/>
    <line x1="0.00" y1="-540.00" x2="-381.84" y2="-381.84"/>
    <line x1="0.00" y1="-540.00" x2="-540.00" y2="-0.00"/>
    <line x1="0.00" y1="-540.00" x2="-381.84" y2="381.84"/>
    <line x1="0.00" y1="-540.00" x2="-0.00" y2="540.00"/>
    <line x1="0.00" y1="-540.00" x2="381.84" y2="381.84"/>
    <line x1="-381.84" y1="-381.84" x2="-540.00" y2="-0.00"/>
    <line x1="-381.84" y1="-381.84" x2="-381.84" y2="381.84"/>
    <line x1="-381.84" y1="-381.84" x2="-0.00" y2="540.00"/>
    <line x1="-381.84" y1="-381.84" x2="381.84" y2="381.84"/>
    <line x1="-540.00" y1="-0.00" x2="-381.84" y2="381.84"/>
    <line x1="-540.00" y1="-0.00" x2="-0.00" y2="540.00"/>
    <line x1="-540.00" y1="-0.00" x2="381.84" y2="381.84"/>
    <line x1="-381.84" y1="381.84" x2="-0.00" y2="540.00"/>
    <line x1="-381.84" y1="381.84" x2="381.84" y2="381.84"/>
    <line x1="-0.00" y1="540.00" x2="381.84" y2="381.84"/>
  </g>
  <circle cx="540.00" cy="-0.00" r="120" fill="#0d2840" opacity="1.0"/>
  <circle cx="381.84" cy="-381.84" r="120" fill="#0d2840" opacity="0.9"/>
  <circle cx="0.00" cy="-540.00" r="120" fill="#0d2840" opacity="0.8"/>
  <circle cx="-381.84" cy="-381.84" r="120" fill="#0d2840" opacity="0.7"/>
  <circle cx="-540.00" cy="-0.00" r="120" fill="#0d2840" opacity="0.6"/>
  <circle cx="-381.84" cy="381.84" r="120" fill="#0d2840" opacity="0.5"/>
  <circle cx="-0.00" cy="540.00" r="120" fill="#0d2840" opacity="0.5"/>
  <circle cx="381.84" cy="381.84" r="120" fill="#0d2840" opacity="0.5"/>
</svg>