<svg xmlns="http://www.w3.org/2000/svg" viewBox="-700 -700 1400 1400">
  <polygon points="540.00,-0.00 381.84,-381.84 0.00,-540.00 -381.84,-381.84 -540.00,-0.00 -381.84,381.84 -0.00,540.00 381.84,381.84" fill="#18C81D" opacity="0.3"/>
  <polygon points="540.00,-0.00 270.00,-111.84 223.68,-0.00 270.00,111.84" fill="white"/>
  <polygon points="381.84,-381.84 111.84,-270.00 158.16,-158.16 270.00,-111.84" fill="white"/>
  <polygon points="0.00,-540.00 111.84,-270.00 -0.00,-223.68 -111.84,-270.00" fill="white"/>
  <polygon points="-381.84,-381.84 -111.84,-270.00 -158.16,-158.16 -270.00,-111.84" fill="white"/>
  <polygon points="-540.00,-0.00 -270.00,-111.84 -223.68,-0.00 -270.00,111.84" fill="white"/>
  <polygon points="-381.84,381.84 -270.00,111.84 -158.16,158.16 -111.84,270.00" fill="white"/>
  <polygon points="-0.00,540.00 -111.84,270.00 -0.00,223.68 111.84,270.00" fill="white"/>
  <polygon points="381.84,381.84 111.84,270.00 158.16,158.16 270.00,111.84" fill="white"/>
  <g stroke="#0027A8" stroke-width="10" stroke-linecap="round" fill="none">
    <line x1="540.00" y1="-0.00" x2="381.84" y2="-381.84"/>
    <line x1="540.00" y1="-0.00" x2="0.00" y2="-540.00"/>
    <line x1="540.00" y1="-0.00" x2="-381.84" y2="-381.84"/>
    <line x1="540.00" y1="-0.00" x2="-540.00" y2="-0.00"/>
    <line x1="540.00" y1="-0.00" x2="-381.84" y2="381.84"/>
    <line x1="540.00" y1="-0.00" x2="-0.00" y2="540.00"/>
    <line x1="540.00" y1="-0.00" x2="381.84" y2="381.84"/>
    <line x1="381.84" y1="-381.84" x2="0.00" y2="-540.00"/>
    <line x1="381.84" y1="-381.84" x2="-381.84" y2="-381.84"/>
    <line x1="381.84" y1="-381.84" x2="-540.00" y2="-0.00"/>
    <line x1="381.84" y1="-381.84" x2="-381.84" y2="381.84"/>
    <line x1="381.84" y1="-381.84" x2="-0.00" y2="540.00"/>
    <line x1="381.84" y1="-381.84" x2="381.84" y2="381.84"/>
    <line x1="0.00" y1="-540.00" x2="-381.84" y2="-381.84"/>
    <line x1="0.00" y1="-540.00" x2="-540.00" y2="-0.00"/>
    <line x1="0.00" y1="-540.00" x2="-381.84" y2="381.84"/>
    <line x1="0.00" y1="-540.00" x2="-0.00" y2="540.00"/>
    <line x1="0.00" y1="-540.00" x2="381.84" y2="381.84"/>
    <line x1="-381.84" y1="-381.84" x2="-540.00" y2="-0.00"/>
    <line x1="-381.84" y1="-381.84" x2="-381.84" y2="381.84"/>
    <line x1="-381.84" y1="-381.84" x2="-0.00" y2="540.00"/>
    <line x1="-381.84" y1="-381.84" x2="381.84" y2="381.84"/>
    <line x1="-540.00" y1="-0.00" x2="-381.84" y2="381.84"/>
    <line x1="-540.00" y1="-0.00" x2="-0.00" y2="540.00"/>
    <line x1="-540.00" y1="-0.00" x2="381.84" y2="381.84"/>
    <line x1="-381.84" y1="381.84" x2="-0.00" y2="540.00"/>
    <line x1="-381.84" y1="381.84" x2="381.84" y2="381.84"/>
    <line x1="-0.00" y1="540.00" x2="381.84" y2="381.84"/>
  </g>
  <circle cx="540.00" cy="-0.00" r="100" fill="white"/>
  <circle cx="381.84" cy="-381.84" r="100" fill="white"/>
  <circle cx="0.00" cy="-540.00" r="100" fill="white"/>
  <circle cx="-381.84" cy="-381.84" r="100" fill="white"/>
  <circle cx="-540.00" cy="-0.00" r="100" fill="white"/>
  <circle cx="-381.84" cy="381.84" r="100" fill="white"/>
  <circle cx="-0.00" cy="540.00" r="100" fill="white"/>
  <circle cx="381.84" cy="381.84" r="100" fill="white"/>
  <circle cx="540.00" cy="-0.00" r="62.5" fill="#0027A8" opacity="1.0"/>
  <circle cx="381.84" cy="-381.84" r="62.5" fill="#0027A8" opacity="0.9"/>
  <circle cx="0.00" cy="-540.00" r="62.5" fill="#0027A8" opacity="0.8"/>
  <circle cx="-381.84" cy="-381.84" r="62.5" fill="#0027A8" opacity="0.7"/>
  <circle cx="-540.00" cy="-0.00" r="62.5" fill="#0027A8" opacity="0.6"/>
  <circle cx="-381.84" cy="381.84" r="62.5" fill="#0027A8" opacity="0.5"/>
  <circle cx="-0.00" cy="540.00" r="62.5" fill="#0027A8" opacity="0.5"/>
  <circle cx="381.84" cy="381.84" r="62.5" fill="#0027A8" opacity="0.5"/>
</svg>