<svg xmlns="http://www.w3.org/2000/svg" viewBox="-700 -700 1400 1400" width="100%" height="100%" preserveAspectRatio="xMidYMid meet">
  <g stroke="#a8d4e8" stroke-width="14" stroke-linecap="round" fill="none" opacity="0.7">
    <line x1="540.00" y1="-0.00" x2="381.84" y2="-381.84"/>
    <line x1="540.00" y1="-0.00" x2="0.00" y2="-540.00"/>
    <line x1="540.00" y1="-0.00" x2="-381.84" y2="-381.84"/>
    <line x1="540.00" y1="-0.00" x2="-540.00" y2="-0.00"/>
    <line x1="540.00" y1="-0.00" x2="-381.84" y2="381.84"/>
    <line x1="540.00" y1="-0.00" x2="-0.00" y2="540.00"/>
    <line x1="540.00" y1="-0.00" x2="381.84" y2="381.84"/>
    <line x1="381.84" y1="-381.84" x2="0.00" y2="-540.00"/>
    <line x1="381.84" y1="-381.84" x2="-381.84" y2="-381.84"/>
    <line x1="381.84" y1="-381.84" x2="-540.00" y2="-0.00"/>
    <line x1="381.84" y1="-381.84" x2="-381.84" y2="381.84"/>
    <line x1="381.84" y1="-381.84" x2="-0.00" y2="540.00"/>
    <line x1="381.84" y1="-381.84" x2="381.84" y2="381.84"/>
    <line x1="0.00" y1="-540.00" x2="-381.84" y2="-381.84"/>
    <line x1="0.00" y1="-540.00" x2="-540.00" y2="-0.00"/>
    <line x1="0.00" y1="-540.00" x2="-381.84" y2="381.84"/>
    <line x1="0.00" y1="-540.00" x2="-0.00" y2="540.00"/>
    <line x1="0.00" y1="-540.00" x2="381.84" y2="381.84"/>
    <line x1="-381.84" y1="-381.84" x2="-540.00" y2="-0.00"/>
    <line x1="-381.84" y1="-381.84" x2="-381.84" y2="381.84"/>
    <line x1="-381.84" y1="-381.84" x2="-0.00" y2="540.00"/>
    <line x1="-381.84" y1="-381.84" x2="381.84" y2="381.84"/>
    <line x1="-540.00" y1="-0.00" x2="-381.84" y2="381.84"/>
    <line x1="-540.00" y1="-0.00" x2="-0.00" y2="540.00"/>
    <line x1="-540.00" y1="-0.00" x2="381.84" y2="381.84"/>
    <line x1="-381.84" y1="381.84" x2="-0.00" y2="540.00"/>
    <line x1="-381.84" y1="381.84" x2="381.84" y2="381.84"/>
    <line x1="-0.00" y1="540.00" x2="381.84" y2="381.84"/>
  </g>
  <circle cx="540.00" cy="-0.00" r="90" fill="#a8d4e8" opacity="1.0"/>
  <circle cx="381.84" cy="-381.84" r="90" fill="#a8d4e8" opacity="0.92"/>
  <circle cx="0.00" cy="-540.00" r="90" fill="#a8d4e8" opacity="0.85"/>
  <circle cx="-381.84" cy="-381.84" r="90" fill="#a8d4e8" opacity="0.78"/>
  <circle cx="-540.00" cy="-0.00" r="90" fill="#a8d4e8" opacity="0.7"/>
  <circle cx="-381.84" cy="381.84" r="90" fill="#a8d4e8" opacity="0.62"/>
  <circle cx="-0.00" cy="540.00" r="90" fill="#a8d4e8" opacity="0.62"/>
  <circle cx="381.84" cy="381.84" r="90" fill="#a8d4e8" opacity="0.62"/>
</svg>